<svg xmlns="http://www.w3.org/2000/svg" width="24" height="24" viewBox="0 0 24 24" fill="none" aria-hidden="true">
  <path fill="#07C160" d="M9.5 4C5.91 4 3 6.46 3 9.5c0 1.72.9 3.27 2.33 4.32L4.8 16.2l2.7-1.35c.64.18 1.31.28 2 .28.2 0 .4-.01.6-.03A5.1 5.1 0 0 1 9.5 14c-3.04 0-5.5-2.13-5.5-4.75S6.46 4.5 9.5 4.5c.34 0 .67.02 1 .07C9.87 4.03 9.69 4 9.5 4zm5.5 5c-3.04 0-5.5 2.13-5.5 4.75S11.96 18.5 15 18.5c.69 0 1.36-.1 2-.28l2.7 1.35-.53-2.38C20.6 16.14 21.5 14.59 21.5 12.87 21.5 10.25 19.04 9 15 9z"/>
  <circle cx="8" cy="9.5" r="1" fill="#fff"/>
  <circle cx="11.2" cy="9.5" r="1" fill="#fff"/>
  <circle cx="13.7" cy="13.6" r=".9" fill="#fff"/>
  <circle cx="16.5" cy="13.6" r=".9" fill="#fff"/>
</svg>
