<svg xmlns="http://www.w3.org/2000/svg" width="128" height="128" viewBox="0 0 128 128" fill="none" role="img" aria-label="Trump Tracker">
  <defs>
    <linearGradient id="g" x1="20" y1="16" x2="108" y2="112" gradientUnits="userSpaceOnUse">
      <stop stop-color="#1D9BF0"/>
      <stop offset="1" stop-color="#0A66C2"/>
    </linearGradient>
  </defs>
  <!-- App tile -->
  <rect width="128" height="128" rx="32" fill="#000000"/>
  <rect x="1.5" y="1.5" width="125" height="125" rx="30.5" stroke="#2F3336" stroke-width="3"/>
  <!-- Outer ring -->
  <circle cx="64" cy="64" r="40" stroke="url(#g)" stroke-width="4" fill="none"/>
  <!-- Inner soft ring -->
  <circle cx="64" cy="64" r="30" stroke="#E7E9EA" stroke-width="2" opacity="0.18" fill="none"/>
  <!-- T monogram -->
  <path d="M42 46h44c1.7 0 3 1.3 3 3s-1.3 3-3 3H67v34c0 1.7-1.3 3-3 3s-3-1.3-3-3V52H42c-1.7 0-3-1.3-3-3s1.3-3 3-3z" fill="#E7E9EA"/>
  <!-- Tracker notch (signal) -->
  <path d="M80 78c6.5 0 12 5.5 12 12" stroke="#1D9BF0" stroke-width="3.5" stroke-linecap="round" fill="none"/>
  <path d="M80 70c11 0 20 9 20 20" stroke="#1D9BF0" stroke-width="3" stroke-linecap="round" fill="none" opacity="0.55"/>
  <circle cx="80" cy="90" r="3.2" fill="#1D9BF0"/>
</svg>
